<svg width="32" height="32" viewBox="0 0 32 32" fill="none" xmlns="http://www.w3.org/2000/svg">
<path fill-rule="evenodd" clip-rule="evenodd" d="M9.57538 0.510248C11.2371 0.433748 11.767 0.416748 16 0.416748C20.233 0.416748 20.7628 0.435165 22.4231 0.510248C24.0835 0.585331 25.2168 0.850248 26.2085 1.23416C27.2469 1.62658 28.189 2.24 28.9681 3.03333C29.7615 3.81108 30.3735 4.75175 30.7645 5.79158C31.1498 6.78325 31.4133 7.91658 31.4898 9.57408C31.5663 11.2387 31.5833 11.7685 31.5833 16.0001C31.5833 20.2331 31.5649 20.7629 31.4898 22.4247C31.4147 24.0822 31.1498 25.2155 30.7645 26.2072C30.3734 27.2471 29.7604 28.1894 28.9681 28.9682C28.189 29.7616 27.2469 30.3736 26.2085 30.7646C25.2168 31.1499 24.0835 31.4134 22.426 31.4899C20.7628 31.5664 20.233 31.5834 16 31.5834C11.767 31.5834 11.2371 31.565 9.57538 31.4899C7.91788 31.4148 6.78454 31.1499 5.79288 30.7646C4.75293 30.3735 3.8107 29.7605 3.03179 28.9682C2.239 28.19 1.62549 27.2483 1.23404 26.2086C0.850126 25.2169 0.586626 24.0836 0.510126 22.4261C0.433626 20.7615 0.416626 20.2317 0.416626 16.0001C0.416626 11.7671 0.435043 11.2372 0.510126 9.57691C0.585209 7.91658 0.850126 6.78325 1.23404 5.79158C1.62607 4.75186 2.24004 3.81011 3.03321 3.03191C3.81102 2.23929 4.75229 1.62579 5.79146 1.23416C6.78313 0.850248 7.91646 0.586748 9.57396 0.510248H9.57538ZM22.297 3.31525C20.6537 3.24016 20.1607 3.22458 16 3.22458C11.8392 3.22458 11.3462 3.24016 9.70288 3.31525C8.18279 3.38466 7.35829 3.63825 6.80863 3.85216C6.08188 4.1355 5.56196 4.47125 5.01654 5.01666C4.49952 5.51965 4.10163 6.13198 3.85204 6.80875C3.63813 7.35841 3.38454 8.18291 3.31513 9.703C3.24004 11.3463 3.22446 11.8393 3.22446 16.0001C3.22446 20.1608 3.24004 20.6538 3.31513 22.2972C3.38454 23.8172 3.63813 24.6417 3.85204 25.1914C4.10138 25.8672 4.49946 26.4806 5.01654 26.9835C5.51946 27.5006 6.13288 27.8987 6.80863 28.148C7.35829 28.3619 8.18279 28.6155 9.70288 28.6849C11.3462 28.76 11.8378 28.7756 16 28.7756C20.1621 28.7756 20.6537 28.76 22.297 28.6849C23.8171 28.6155 24.6416 28.3619 25.1913 28.148C25.918 27.8647 26.438 27.5289 26.9834 26.9835C27.5005 26.4806 27.8985 25.8672 28.1479 25.1914C28.3618 24.6417 28.6154 23.8172 28.6848 22.2972C28.7599 20.6538 28.7755 20.1608 28.7755 16.0001C28.7755 11.8393 28.7599 11.3463 28.6848 9.703C28.6154 8.18291 28.3618 7.35841 28.1479 6.80875C27.8645 6.082 27.5288 5.56208 26.9834 5.01666C26.4804 4.49968 25.868 4.1018 25.1913 3.85216C24.6416 3.63825 23.8171 3.38466 22.297 3.31525ZM14.0095 20.804C15.1211 21.2667 16.3589 21.3292 17.5114 20.9807C18.664 20.6322 19.6598 19.8944 20.3287 18.8933C20.9977 17.8921 21.2984 16.6898 21.1794 15.4916C21.0603 14.2935 20.529 13.1738 19.6762 12.3238C19.1325 11.7805 18.4752 11.3645 17.7514 11.1057C17.0277 10.8469 16.2556 10.7518 15.4907 10.8273C14.7258 10.9027 13.9871 11.1468 13.3278 11.542C12.6686 11.9372 12.1052 12.4736 11.6781 13.1127C11.2511 13.7518 10.9711 14.4776 10.8582 15.2379C10.7453 15.9981 10.8024 16.774 11.0254 17.5096C11.2484 18.2451 11.6316 18.9221 12.1476 19.4918C12.6637 20.0614 13.2995 20.5096 14.0095 20.804ZM10.3361 10.3362C11.0799 9.59246 11.9629 9.00246 12.9347 8.59993C13.9065 8.19739 14.9481 7.99021 16 7.99021C17.0518 7.99021 18.0934 8.19739 19.0652 8.59993C20.037 9.00246 20.92 9.59246 21.6638 10.3362C22.4076 11.08 22.9976 11.963 23.4001 12.9348C23.8026 13.9066 24.0098 14.9482 24.0098 16.0001C24.0098 17.052 23.8026 18.0935 23.4001 19.0653C22.9976 20.0371 22.4076 20.9201 21.6638 21.6639C20.1616 23.1661 18.1243 24.01 16 24.01C13.8756 24.01 11.8383 23.1661 10.3361 21.6639C8.83398 20.1618 7.99009 18.1244 7.99009 16.0001C7.99009 13.8757 8.83398 11.8384 10.3361 10.3362ZM25.7863 9.18308C25.9706 9.00921 26.1182 8.80013 26.2202 8.56821C26.3223 8.33629 26.3768 8.08625 26.3805 7.8329C26.3842 7.57954 26.337 7.32802 26.2417 7.09323C26.1465 6.85843 26.0051 6.64514 25.8259 6.46597C25.6467 6.2868 25.4334 6.1454 25.1986 6.05015C24.9639 5.95489 24.7123 5.90771 24.459 5.91141C24.2056 5.9151 23.9556 5.96959 23.7237 6.07165C23.4917 6.17371 23.2827 6.32127 23.1088 6.50558C22.7706 6.86404 22.5855 7.34017 22.5927 7.8329C22.5999 8.32563 22.7988 8.79616 23.1473 9.14461C23.4957 9.49306 23.9662 9.69199 24.459 9.69917C24.9517 9.70635 25.4278 9.52122 25.7863 9.18308Z" fill="#FF001E"/>
</svg>
